{
	"asset":{
		"generator":"Khronos glTF Blender I/O v4.3.47",
		"version":"2.0"
	},
	"scene":0,
	"scenes":[
		{
			"name":"Scene",
			"nodes":[
				5
			]
		},
		{
			"name":"Sheet_Overview"
		}
	],
	"nodes":[
		{
			"mesh":0,
			"name":"Monitor_32_Monitor",
			"translation":[
				0,
				0.3199999928474426,
				0.03999999910593033
			]
		},
		{
			"mesh":1,
			"name":"Monitor_32_Stand_Base"
		},
		{
			"mesh":2,
			"name":"Monitor_32_Stand_Rod"
		},
		{
			"mesh":3,
			"name":"Monitor_32_Stand_Rod_Hinge"
		},
		{
			"mesh":4,
			"name":"Monitor_32_Stand_Vesa"
		},
		{
			"children":[
				0,
				1,
				2,
				3,
				4
			],
			"name":"Monitor_32_grp"
		}
	],
	"materials":[
		{
			"doubleSided":true,
			"name":"Monitor_Display",
			"pbrMetallicRoughness":{
				"baseColorFactor":[
					0.06111115217208862,
					0.06111115217208862,
					0.06111115217208862,
					1
				],
				"metallicFactor":0,
				"roughnessFactor":0.14052286744117737
			}
		},
		{
			"doubleSided":true,
			"name":"Monitor_Base",
			"pbrMetallicRoughness":{
				"baseColorFactor":[
					0.06666641682386398,
					0.08333335816860199,
					0.050000015646219254,
					1
				],
				"metallicFactor":0,
				"roughnessFactor":0.5
			}
		},
		{
			"doubleSided":true,
			"name":"Monitor_Base_Metallic",
			"pbrMetallicRoughness":{
				"baseColorFactor":[
					0.06666641682386398,
					0.08333335816860199,
					0.050000015646219254,
					1
				],
				"roughnessFactor":0.5
			}
		}
	],
	"meshes":[
		{
			"name":"Monitor_32_Monitor",
			"primitives":[
				{
					"attributes":{
						"POSITION":0,
						"NORMAL":1
					},
					"indices":2,
					"material":0
				},
				{
					"attributes":{
						"POSITION":3,
						"NORMAL":4
					},
					"indices":5,
					"material":1
				}
			]
		},
		{
			"name":"Monitor_32_Stand_Base",
			"primitives":[
				{
					"attributes":{
						"POSITION":6,
						"NORMAL":7
					},
					"indices":8,
					"material":2
				}
			]
		},
		{
			"name":"Monitor_32_Stand_Rod",
			"primitives":[
				{
					"attributes":{
						"POSITION":9,
						"NORMAL":10
					},
					"indices":11,
					"material":2
				}
			]
		},
		{
			"name":"Monitor_32_Stand_Rod_Hinge",
			"primitives":[
				{
					"attributes":{
						"POSITION":12,
						"NORMAL":13
					},
					"indices":14,
					"material":2
				}
			]
		},
		{
			"name":"Monitor_32_Stand_Vesa",
			"primitives":[
				{
					"attributes":{
						"POSITION":15,
						"NORMAL":16
					},
					"indices":17,
					"material":1
				}
			]
		}
	],
	"accessors":[
		{
			"bufferView":0,
			"componentType":5126,
			"count":6,
			"max":[
				0.3540000021457672,
				0.19900000095367432,
				0.03999999910593033
			],
			"min":[
				-0.3540000021457672,
				-0.19900000095367432,
				0.03999999910593033
			],
			"type":"VEC3"
		},
		{
			"bufferView":1,
			"componentType":5126,
			"count":6,
			"type":"VEC3"
		},
		{
			"bufferView":2,
			"componentType":5123,
			"count":12,
			"type":"SCALAR"
		},
		{
			"bufferView":3,
			"componentType":5126,
			"count":110,
			"max":[
				0.3569999933242798,
				0.20200000703334808,
				0.03999999910593033
			],
			"min":[
				-0.3569999933242798,
				-0.20900000631809235,
				0
			],
			"type":"VEC3"
		},
		{
			"bufferView":4,
			"componentType":5126,
			"count":110,
			"type":"VEC3"
		},
		{
			"bufferView":5,
			"componentType":5123,
			"count":216,
			"type":"SCALAR"
		},
		{
			"bufferView":6,
			"componentType":5126,
			"count":96,
			"max":[
				0.10000000149011612,
				0.01000000536441803,
				0.10000000149011612
			],
			"min":[
				-0.10000000149011612,
				-7.450580596923828e-09,
				-0.05000000447034836
			],
			"type":"VEC3"
		},
		{
			"bufferView":7,
			"componentType":5126,
			"count":96,
			"type":"VEC3"
		},
		{
			"bufferView":8,
			"componentType":5123,
			"count":168,
			"type":"SCALAR"
		},
		{
			"bufferView":9,
			"componentType":5126,
			"count":94,
			"max":[
				0.019292617216706276,
				0.35920941829681396,
				0.019999999552965164
			],
			"min":[
				-0.019292617216706276,
				0.004999999422580004,
				-0.019963102415204048
			],
			"type":"VEC3"
		},
		{
			"bufferView":10,
			"componentType":5126,
			"count":94,
			"type":"VEC3"
		},
		{
			"bufferView":11,
			"componentType":5123,
			"count":168,
			"type":"SCALAR"
		},
		{
			"bufferView":12,
			"componentType":5126,
			"count":56,
			"max":[
				0.009999999776482582,
				0.32999998331069946,
				0.04200000315904617
			],
			"min":[
				-0.009999999776482582,
				0.3099999725818634,
				0
			],
			"type":"VEC3"
		},
		{
			"bufferView":13,
			"componentType":5126,
			"count":56,
			"type":"VEC3"
		},
		{
			"bufferView":14,
			"componentType":5123,
			"count":108,
			"type":"SCALAR"
		},
		{
			"bufferView":15,
			"componentType":5126,
			"count":32,
			"max":[
				0.04999999329447746,
				0.3700000047683716,
				0.044999994337558746
			],
			"min":[
				-0.04999999329447746,
				0.27000001072883606,
				0.03999999910593033
			],
			"type":"VEC3"
		},
		{
			"bufferView":16,
			"componentType":5126,
			"count":32,
			"type":"VEC3"
		},
		{
			"bufferView":17,
			"componentType":5123,
			"count":60,
			"type":"SCALAR"
		}
	],
	"bufferViews":[
		{
			"buffer":0,
			"byteLength":72,
			"byteOffset":0,
			"target":34962
		},
		{
			"buffer":0,
			"byteLength":72,
			"byteOffset":72,
			"target":34962
		},
		{
			"buffer":0,
			"byteLength":24,
			"byteOffset":144,
			"target":34963
		},
		{
			"buffer":0,
			"byteLength":1320,
			"byteOffset":168,
			"target":34962
		},
		{
			"buffer":0,
			"byteLength":1320,
			"byteOffset":1488,
			"target":34962
		},
		{
			"buffer":0,
			"byteLength":432,
			"byteOffset":2808,
			"target":34963
		},
		{
			"buffer":0,
			"byteLength":1152,
			"byteOffset":3240,
			"target":34962
		},
		{
			"buffer":0,
			"byteLength":1152,
			"byteOffset":4392,
			"target":34962
		},
		{
			"buffer":0,
			"byteLength":336,
			"byteOffset":5544,
			"target":34963
		},
		{
			"buffer":0,
			"byteLength":1128,
			"byteOffset":5880,
			"target":34962
		},
		{
			"buffer":0,
			"byteLength":1128,
			"byteOffset":7008,
			"target":34962
		},
		{
			"buffer":0,
			"byteLength":336,
			"byteOffset":8136,
			"target":34963
		},
		{
			"buffer":0,
			"byteLength":672,
			"byteOffset":8472,
			"target":34962
		},
		{
			"buffer":0,
			"byteLength":672,
			"byteOffset":9144,
			"target":34962
		},
		{
			"buffer":0,
			"byteLength":216,
			"byteOffset":9816,
			"target":34963
		},
		{
			"buffer":0,
			"byteLength":384,
			"byteOffset":10032,
			"target":34962
		},
		{
			"buffer":0,
			"byteLength":384,
			"byteOffset":10416,
			"target":34962
		},
		{
			"buffer":0,
			"byteLength":120,
			"byteOffset":10800,
			"target":34963
		}
	],
	"buffers":[
		{
			"byteLength":10920,
			"uri":"Monitor_32.bin"
		}
	]
}
